<svg xmlns="http://www.w3.org/2000/svg" viewBox="0 0 512 512"><defs><style>.cls-2{fill:#515d73}</style></defs><g id="Calque_2" data-name="Calque 2"><path d="M346.18 176.86a31.25 31.25 0 1031.25 31.25 31.25 31.25 0 00-31.25-31.25zm0 53.82a22.57 22.57 0 1122.57-22.57 22.59 22.59 0 01-22.57 22.57z" fill="#fff"/><path class="cls-2" d="M346.18 168.18a39.93 39.93 0 1039.93 39.93 40 40 0 00-39.93-39.93zm0 62.5a22.57 22.57 0 1122.57-22.57 22.59 22.59 0 01-22.57 22.57z"/><path class="cls-2" d="M446.44 240.06l-6 16.3a15.59 15.59 0 01-16.24 10.1l-18-1.86-4.4 4.6 1.2 18.22a15.54 15.54 0 01-9.84 15.58l-14.66 5.75a15.43 15.43 0 01-5.65 1.07 15.69 15.69 0 01-12.46-6.15l-10.87-14.29h-8l-9.31 12.22a15.55 15.55 0 01-18.69 4.83l-6.9-3c-.27-.19-5.94-4.3-2.2-11.63 3-5.83 9.2-4.25 9.2-4.25l5.63 2.48 9-11.81a15.68 15.68 0 0112.41-6.15h9.79a15.68 15.68 0 0112.41 6.15l10.6 13.93 12.22-4.79-1.24-17.69a15.65 15.65 0 014.27-11.87l5.54-5.79a15.66 15.66 0 0112.89-4.75l17.51 1.81 5.16-13.92-12.21-11.23a15.73 15.73 0 01-5-11l-.28-9.11a15.54 15.54 0 015.15-12.08l12.33-11.09-3.92-11-15.56 1.31A15.6 15.6 0 01398 166.4l-8-8a15.57 15.57 0 01-4.5-12.53l1.48-15.3-13.78-6.24-10.73 11.93a15.51 15.51 0 01-12 5.16l-11.18-.3a15.53 15.53 0 01-11.79-5.89l-8.77-11-13.74 5.28-1.42 16s-1.24 6.86-10 5.91c-6.55-.72-7.28-7.45-7.28-7.45l1.52-17.1a15.68 15.68 0 019.94-13.18l16-6.14a15.52 15.52 0 0117.81 4.86l9.07 11.4 9.55.26 11.05-12.28a15.54 15.54 0 0118-3.78l16.08 7.28a15.63 15.63 0 019.1 15.71l-1.52 15.73 6.86 6.86 16.11-1.35a15.61 15.61 0 0116 10.33l4.68 13.43a15.55 15.55 0 01-4.27 16.81l-12.59 11.33.24 7.55 12.47 11.51a15.58 15.58 0 014.05 16.86zM286.93 177.92c0-11.92-12.27-21.22-36.47-27.66-20.07-5.34-46.61-8.28-74.72-8.28s-54.65 2.94-74.71 8.28c-24.2 6.44-36.48 15.74-36.48 27.66V369.6c0 11.92 12.28 21.23 36.48 27.66 20.06 5.34 46.6 8.28 74.71 8.28s54.65-2.94 74.72-8.28c24.2-6.43 36.47-15.74 36.47-27.66V180.38h-.18a16.76 16.76 0 00.18-2.46zm-178.2-11.71c18.26-4.43 42.06-6.87 67-6.87s48.75 2.44 67 6.87c18.95 4.6 25.53 9.82 26.7 11.71-1.17 1.9-7.75 7.12-26.7 11.71-18.26 4.43-42.06 6.87-67 6.87s-48.75-2.44-67-6.87-25-9.44-26.55-11.49a2.17 2.17 0 01-.15-.22c1.18-1.92 7.75-7.11 26.7-11.71zM269.57 369.6h-.12c-1.17 1.9-7.75 7.11-26.7 11.71-18.26 4.43-42.06 6.87-67 6.87s-48.75-2.44-67-6.87c-19-4.6-25.52-9.81-26.7-11.71h.15v-39.85a105.64 105.64 0 0018.85 6.7c20.06 5.34 46.6 8.28 74.71 8.28s54.65-2.94 74.72-8.28a105.37 105.37 0 0019.11-6.83zm0-60.81h-.12c-1.17 1.9-7.75 7.11-26.7 11.71-18.26 4.43-42.06 6.87-67 6.87s-48.75-2.44-67-6.87-25-9.44-26.55-11.49v-44.69A107.24 107.24 0 00101 271c20.06 5.34 46.6 8.28 74.71 8.28s54.65-2.94 74.72-8.28a105.37 105.37 0 0019.11-6.83zm0-65.43h-.12c-1.17 1.9-7.75 7.11-26.7 11.71-18.26 4.43-42.06 6.87-67 6.87s-48.75-2.44-67-6.87-25-9.44-26.55-11.49v-44.7a106.39 106.39 0 0018.8 6.71c20.06 5.33 46.6 8.27 74.71 8.27s54.65-2.94 74.72-8.27a105.33 105.33 0 0019.11-6.84z"/><path class="cls-2" d="M269.45 369.6c-1.17 1.9-7.75 7.11-26.7 11.71-18.26 4.43-42.06 6.87-67 6.87s-48.75-2.44-67-6.87c-19-4.6-25.52-9.81-26.7-11.71h-8.8c0 15.06 45.9 27.26 102.51 27.26s102.51-12.2 102.51-27.26zM64.55 308.79v1.11-1.11zM64.55 243.36v1.11-1.11z"/></g></svg>
