<svg xmlns="http://www.w3.org/2000/svg" viewBox="0 0 512 512"><defs><style>.cls-1{fill:#515d73}</style></defs><g id="Calque_2" data-name="Calque 2"><path class="cls-1" d="M399.94 329H112.06A31.12 31.12 0 0181 297.93V134.12A31.12 31.12 0 01112.06 103h287.88A31.12 31.12 0 01431 134.12v163.81A31.12 31.12 0 01399.94 329zM112.06 123A11.1 11.1 0 00101 134.12v163.81A11.1 11.1 0 00112.06 309h287.88A11.1 11.1 0 00411 297.93V134.12A11.1 11.1 0 00399.94 123zM311 404H201a7.84 7.84 0 01-7-11.41l24.3-47.4a7.82 7.82 0 017-4.26h63.25a7.83 7.83 0 017.08 4.48l22.43 47.41A7.84 7.84 0 01311 404z"/><path d="M127.9 279.55a7.49 7.49 0 01-4.32-13.63l94.53-66.38a7.5 7.5 0 019.36.59l41.19 37.53 111.07-79.82a7.5 7.5 0 018.76 12.16l-116 83.37a7.51 7.51 0 01-9.42-.55l-41.25-37.57-89.62 62.94a7.45 7.45 0 01-4.3 1.36z" fill="#525d73"/></g></svg>
