<svg xmlns="http://www.w3.org/2000/svg" viewBox="0 0 512 512"><defs><style>.cls-1{fill:#515d73}</style></defs><g id="Calque_2" data-name="Calque 2"><path class="cls-1" d="M298.55 403.2h-79.69a7.5 7.5 0 110-15h79.69a7.5 7.5 0 010 15zM277.65 430h-37.9a7.5 7.5 0 010-15h37.9a7.5 7.5 0 010 15zM279.15 99.06a111.18 111.18 0 00-20.44-2.2q3.51 0 7 .15a73.58 73.58 0 0113.44 2.05zM363 159.47c-.15-.32-.31-.63-.48-.95v-.06a113.57 113.57 0 00-71.91-64.38A113 113 0 01363 159.47zM197.12 332.27c.38 1.65.72 3.27 1 4.86-.29-1.59-.63-3.21-1-4.86zM212.81 377.24a14.23 14.23 0 01-2.4-1.09c-6.81-3.9-8.61-11.78-9.08-15.58-.05-.67-.11-1.35-.17-2v-.05c-.42-5-1.11-10.76-2.22-17.08 1.12 6.33 1.81 12.1 2.23 17.1h.09s.09 14.37 11.55 18.7zM217.5 378.32l.78.07h-.1zM292.1 364.74l.64-.06a5 5 0 01-.56.06zM293.92 364.49c.23 0 .44-.1.67-.15h-.18zM306.24 346.7c0-.28 0-.57.08-.86 0 .28-.05.56-.07.83v.05c-.06.63-.1 1.24-.14 1.85-.39 3.44-1.88 10.57-7.51 14.1a12.83 12.83 0 01-4 1.63l.39-.09.22-.06c10.88-3.15 11-17.52 11-17.52a.18.18 0 01.03.07zM334.65 291.67c.94-1.9 1.92-3.79 3-5.69q-1.59 2.85-3 5.69zM342.6 277.42q1.68-1.87 3.27-3.81c-1.05 1.29-2.14 2.56-3.25 3.8-.3.47-.59.95-.88 1.43zM349 269.65q-1.49 2-3.08 3.94c1.02-1.29 2.08-2.59 3.08-3.94zM279.63 174.14h-.7v-3.26a22.48 22.48 0 00-11.27-19.7 17.62 17.62 0 00-17.49-.37A21.43 21.43 0 00238.89 170v4.28a16.76 16.76 0 00-14.89 16.6v38.87a16.76 16.76 0 0016.74 16.74h38.86a16.76 16.76 0 0016.75-16.74v-38.87a16.76 16.76 0 00-16.72-16.74zM248.89 170a11.65 11.65 0 015.92-10.31 7.75 7.75 0 018 .24 12.48 12.48 0 016.16 11v3.26h-20zm37.49 59.78a6.76 6.76 0 01-6.75 6.74h-38.86a6.76 6.76 0 01-6.74-6.74v-38.9a6.76 6.76 0 016.74-6.74h38.86a6.76 6.76 0 016.75 6.74zM223.86 95a113.71 113.71 0 00-69 63.48.14.14 0 000 .06c-.17.32-.33.63-.48.95A113 113 0 01223.86 95zM258.71 96.86a111.28 111.28 0 00-20.45 2.2 73.58 73.58 0 0113.49-2q3.45-.24 6.96-.2z"/><path class="cls-1" d="M371.39 200.06q0-1-.06-2c0-.69-.06-1.38-.1-2.07s-.07-1.22-.11-1.82a1.36 1.36 0 000-.2 111.17 111.17 0 00-8.55-35.41v-.06a113.57 113.57 0 00-71.91-64.38l-2-.56q-2.46-.67-5-1.25l-.37-.09-2.08-.44-.41-.08c-.7-.14-1.41-.28-2.12-.4l-.58-.11c-.82-.14-1.65-.28-2.48-.4-.61-.1-1.23-.19-1.85-.26l-2-.25h-.23c-.63-.08-1.27-.15-1.91-.21-1.5-.15-3-.26-4.53-.35l-1.61-.08c-3.27-.14-6.51-.13-9.72 0l-1.61.08c-1.52.09-3 .21-4.53.35-.64.06-1.28.13-1.91.21h-.23l-2 .25-1.85.26c-.77.11-1.54.24-2.3.37l-.93.17c-.64.11-1.28.23-1.91.36l-.6.12c-.56.11-1.12.23-1.67.36l-.74.16c-1.11.25-2.22.52-3.32.81l-1.64.45L227 94h-.08c-1 .3-2.05.62-3.07 1a113.71 113.71 0 00-69 63.48.14.14 0 000 .06 111.27 111.27 0 00-8.55 35.37c-.05.69-.09 1.37-.13 2.06s-.07 1.38-.1 2.07l-.08 4.16a112.62 112.62 0 00.83 13.7 106.094 106.094 0 001.57 9.5c.07.36.15.73.23 1.09.11.51.22 1 .34 1.51.24 1 .49 2 .75 3 .65 2.49 1.4 4.95 2.22 7.37.55 1.61 1.13 3.22 1.75 4.8a111.16 111.16 0 006.62 14q1.17 2.12 2.45 4.17c.88 1.43 1.8 2.85 2.75 4.23.71 1 1.43 2.07 2.17 3.08s1.5 2 2.27 3c.52.66 1 1.31 1.57 2q1.59 1.93 3.27 3.81.56.88 1.08 1.77L177 281c.7 1.19 1.37 2.38 2 3.56.67 1.19 1.31 2.37 1.93 3.56s1.23 2.37 1.82 3.56q2.11 4.26 3.93 8.48a174.852 174.852 0 015.59 14.73c2 6 3.57 11.84 4.82 17.36.38 1.65.72 3.27 1 4.86.1.5.2 1 .29 1.49.18.92.35 1.84.5 2.74 1.12 6.33 1.81 12.1 2.23 17.1h.09s.09 14.47 11.55 18.8l.54.19.73.23 1 .26a16.83 16.83 0 001.66.31c.25 0 .5.07.76.09l.78.07h80.85l.78-.07c.26 0 .51-.06.76-.09.5-.07 1-.16 1.46-.26h.12q.54-.12 1.05-.27h.12l.58-.19c.38-.13.74-.26 1.1-.41 11-4.55 11-18.6 11-18.6h.09c.29-3.5.71-7.39 1.33-11.58l.09-.63c.2-1.32.41-2.68.65-4.06.68-3.94 1.52-8.09 2.56-12.42.14-.6.29-1.2.44-1.8q.68-2.71 1.47-5.5c.71-2.48 1.48-5 2.33-7.56 1.58-4.8 3.43-9.73 5.59-14.73q1.82-4.21 3.93-8.48c.94-1.9 1.92-3.79 3-5.69.52-1 1.05-1.91 1.6-2.86.81-1.43 1.65-2.85 2.53-4.28l.86-1.42q1.68-1.87 3.27-3.81c1.05-1.29 2.08-2.61 3.08-3.94q1.5-2 2.91-4.08c1-1.48 2-3 2.92-4.52q1.19-1.92 2.28-3.88a112.19 112.19 0 0014.42-57.2zm-65 144.94c0 .29-.05.58-.07.86s-.05.56-.07.83v.05c-.06.63-.1 1.24-.14 1.85-.39 3.44-1.88 10.57-7.51 14.1a12.8 12.8 0 01-4.68 1.78 4 4 0 01-.5.09 15.92 15.92 0 01-1.24.16h-67a5 5 0 01-.56-.06c-.24 0-.46-.06-.69-.1l-.58-.1a13.17 13.17 0 01-4.59-1.77c-5.62-3.53-7.11-10.66-7.5-14.1 0-.61-.08-1.22-.14-1.85v-.05c0-.27 0-.55-.07-.83s0-.57-.07-.86 0-.45-.06-.67c-1.57-17.74-6.57-44.67-21.57-71a107.52 107.52 0 01-23.78-70.05c.81-48.14 31-93.87 72.65-104.2a73.58 73.58 0 0113.49-2q3.45-.2 7-.15t7 .15a73.58 73.58 0 0113.49 2c41.67 10.33 71.84 56.06 72.65 104.2.45 27-8.64 51.54-23.78 70.05-15 26.33-20 53.26-21.57 71-.08.21-.1.43-.11.67z"/><path class="cls-1" d="M174.81 277.42q.56.88 1.08 1.77l-1.1-1.78c-1.11-1.24-2.2-2.51-3.25-3.8q1.59 1.93 3.27 3.81zM222.17 364.18l.25.07a12.75 12.75 0 01-3.62-1.54c-5.62-3.53-7.11-10.66-7.5-14.1 0-.61-.08-1.22-.14-1.85v-.05c0-.27 0-.55-.07-.83 0 .29.06.58.08.86h.07s.09 14.26 10.93 17.44zM222.42 364.25l.26.06-.23-.05zM223.39 364.48l-.71-.17.25.06zM224.66 364.68l.65.06h-.09a5 5 0 01-.56-.06zM299.13 378.39l.78-.07-.68.07zM316.24 358.46c.29-3.5.71-7.39 1.33-11.58-.6 4.18-1 8.06-1.32 11.56v.05c-.07.69-.12 1.37-.17 2-.47 3.8-2.27 11.68-9.08 15.58a15.87 15.87 0 01-1.9.89c11-4.55 11-18.6 11-18.6zM322.79 322.45q-.78 2.79-1.47 5.5.68-2.71 1.47-5.5z"/></g></svg>
