<svg id="Calque_1" data-name="Calque 1" xmlns="http://www.w3.org/2000/svg" viewBox="0 0 512 512"><defs><clipPath id="clip-path"><path class="cls-1" d="M34.2 394.31a7 7 0 002.93 2 6.59 6.59 0 00-.57-1.37c-.26-.5-.74-1.21-1.25-2-3.82-5.76-10.94-16.46.54-35.82.94-1.57 1.91-3.1 2.85-4.58a69 69 0 005-8.75h-2.54A98.9 98.9 0 0024 345.33a231.47 231.47 0 002.91 29.58c1.2 7.37 2.93 14.81 7.29 19.4zm66.29-22.8c-7.52 1.2-17.25 4.13-20.84 11.26-2.61 5.17-2 11.58-1.28 19 .67 6.92 1.36 14.07-.49 21.39-2.29 9-9.79 18.87-20.85 19.25a33.91 33.91 0 01-8.54-1.09 32.07 32.07 0 00-4.32-.74 1.69 1.69 0 00.19.56c.82 1.55 4.69 4.68 11.56 6.48 4.9 1.28 17.59 3.38 29.68-4.69 1.35-.9 2.7-1.93 4.13-3a56.8 56.8 0 019.12-6c7.7-3.84 15.8-3.63 21.69.56 7.61 5.42 8.71 14.92 8.71 20.82 0 1.57-.08 2.87-.13 3.79l-.05.79c-.29 5-.6 10.26 1.42 12.8 1.34 1.68 4.32 2.49 7.25 2l.32-.07a107.15 107.15 0 003.43-26.94 106.36 106.36 0 00-.58-11.21v-.11c0-.16 0-.32-.05-.48v-.29-.33c0-.11 0-.28-.05-.42s0-.14 0-.2-.05-.4-.08-.6A105.74 105.74 0 00138.4 422c-.05-.19-.09-.37-.14-.56a.85.85 0 010-.17c0-.12-.06-.24-.1-.36l-.09-.37v-.15a104.52 104.52 0 00-29.6-49.74c-2.73.15-5.37.45-7.98.86zm-55.37-42.85h4.15c1.2.08 2.39.19 3.57.31h.56a112.69 112.69 0 0161.65 27.22c.24.18.48.36.71.56A119.45 119.45 0 01152 415.79a122.25 122.25 0 013.48 18.72v.13c0 .05 0 .31.05.46a123.47 123.47 0 01.63 12.49 123 123 0 01-5.11 35.18c0 .17-.11.33-.17.5a119.81 119.81 0 01-10.79 25 7.21 7.21 0 01-10.08 2.66 7.76 7.76 0 01-2.57-10.43 102.81 102.81 0 005.35-10.71 20.78 20.78 0 01-13.7-7.47c-5.71-7.17-5.18-16.18-4.76-23.41l.05-.78c.46-8-1.2-10.43-2.23-11.16-1.39-1-4.25-.74-7 .62a44.53 44.53 0 00-6.79 4.58c-1.55 1.18-3.15 2.4-4.88 3.55a51.06 51.06 0 01-41.25 6.65c-9.79-2.55-17.58-7.75-20.85-13.88a17.49 17.49 0 01-2-8.21 15.23 15.23 0 014.3-10.88c5.74-5.62 13-4 17.82-3a23.42 23.42 0 005 .77c3.23-.11 6.15-4.1 7.11-7.89 1.18-4.68.65-10.19.09-16-.83-8.6-1.77-18.34 2.87-27.55C71 367 79.37 361 91.53 357.86a97.52 97.52 0 00-32.68-12.43c-1.74 5.95-5 11-7.87 15.55-.91 1.45-1.78 2.81-2.59 4.17-6.48 10.91-3.92 14.76-1 19.21a37.4 37.4 0 012 3.29c4.89 9.22 2 17.25-3 21.12-5.32 4.09-14.7 4.66-22.74-3.77-7.21-7.59-9.71-17.71-11.33-27.53A245.27 245.27 0 019.4 349a7.35 7.35 0 01-8.06-5.21 7.78 7.78 0 01-.34-2.31 7.58 7.58 0 015.12-7.25 111.41 111.41 0 0135.07-5.63q1.93 0 3.84.06z"/></clipPath><clipPath id="clip-path-2"><path class="cls-1" d="M.81 1.59h507.24V512H.81z"/></clipPath><clipPath id="clip-path-3"><path d="M218.09 348.22a7.91 7.91 0 01-6 9.51 54.13 54.13 0 01-50.45-14.11 52.2 52.2 0 01-15.78-37.36 53 53 0 011.45-12.32 8 8 0 019.66-5.89 7.92 7.92 0 016 9.52 36.61 36.61 0 0010 34.86 38 38 0 0035.42 9.9 8 8 0 019.7 5.89z"/></clipPath><clipPath id="clip-path-4"><path d="M.81 1.58h507.24V512H.81z"/></clipPath><clipPath id="clip-path-5"><path class="cls-1" d="M191.59 18.9l-24.78 24.4L189.9 66l28.7-28.26-19.18-18.84a5.6 5.6 0 00-7.83 0zm-30.38 96.28l23.09 22.74 28.7-28.26-23.1-22.74zm60.71 52.07l24.78-24.4-23.09-22.74-28.7 28.25 19.18 18.89a5.61 5.61 0 007.83 0zM282.09 108a5.4 5.4 0 001.62-3.86 5.34 5.34 0 00-1.62-3.85l-19.18-18.88-28.69 28.25 23.09 22.74zm-52.88-59.77l-28.7 28.25 23.1 22.74L252.3 71zm25.87 158.6a.55.55 0 000 .78L268 220.35l.15.14 18.51 18.23.14.14 12.95 12.75a.54.54 0 00.78 0l33.6-33.08 33.6-33.08a.51.51 0 00.16-.38.49.49 0 00-.17-.39l-8-7.86-.24-.23-28.23-27.81-.25-.24-8-7.87a.56.56 0 00-.39-.16.54.54 0 00-.39.16l-33.6 33.08zm1.7 35.33q2.1 1.8 4.09 3.75t3.81 4l6.09-6-7.9-7.78zm-52.66-4.46l65.09 64.08a63.15 63.15 0 00-18.95-45.42 65.3 65.3 0 00-46.14-18.66zm176.12-81.86l-27.89-27.46-6.76 13.55 20.89 20.57zM198.42 299.61a5.47 5.47 0 000 7.79 5.66 5.66 0 007.91 0 5.45 5.45 0 000-7.79 5.66 5.66 0 00-7.91 0zm142.34-15.35a5.41 5.41 0 000 7.71l19.18 18.88 28.7-28.25-23.09-22.74zM427.35 375a5.55 5.55 0 003.92-1.59L456.05 349 433 326.23l-28.69 28.25 19.18 18.89a5.51 5.51 0 003.86 1.63zm-33.7-31l28.69-28.26-23.1-22.74-28.69 28.3zm68-67l-23.1-22.75-28.69 28.35L433 305.34zm-56.8-53.67a5.52 5.52 0 00-3.92 1.6l-24.78 24.39 23.09 22.74 28.7-28.25L408.76 225a5.51 5.51 0 00-3.91-1.58zM210 8.45l82.67 81.4a20 20 0 010 28.6l-24.78 24.4 15.47 15.23 28.29-27.87a15.73 15.73 0 0122 0l.69.68 7.88-15.8a9.5 9.5 0 017-5.11 9.6 9.6 0 018.29 2.62l38.74 38.14a9.3 9.3 0 012.66 8.16 9.4 9.4 0 01-5.19 6.88l-16.05 7.75.69.69a15.14 15.14 0 010 21.66l-28.3 27.86L365.55 239l24.78-24.4a20.77 20.77 0 0129 0l24.48 24.1L502 296a20 20 0 010 28.6l-1.39 1.37a7.58 7.58 0 01-10.6 0 7.31 7.31 0 010-10.45l1.39-1.36a5.41 5.41 0 000-7.71l-19.19-18.89-28.69 28.25 23.09 22.74 2.18-2.14a7.59 7.59 0 0110.61 0 7.31 7.31 0 010 10.45l-37.57 37a20.77 20.77 0 01-29 0l-24.48-24.1-58.18-57.29a20 20 0 010-28.6l24.78-24.4-15.47-15.22-28.3 27.86a15.75 15.75 0 01-22 0l-7.79-7.66-7.87 7.74a77.63 77.63 0 019.48 53.2 9.38 9.38 0 01-6.52 7.27 9.6 9.6 0 01-9.58-2.32l-35.49-34.93-10.11 9.95a20.07 20.07 0 01-4.31 22.47 20.81 20.81 0 01-29.12 0 20 20 0 010-28.67 20.85 20.85 0 0122.82-4.24l10.11-10L185.27 240a9.26 9.26 0 01-2.79-6.62 9.35 9.35 0 017.82-9.23 81 81 0 0154.09 9.29l7.87-7.74-7.79-7.67a15.18 15.18 0 010-21.67l28.3-27.86-15.46-15.23-24.78 24.4a20.8 20.8 0 01-29.05 0l-82.67-81.4a20.06 20.06 0 01-1.92-26.41 7.57 7.57 0 0110.5-1.48 7.31 7.31 0 011.5 10.33 5.42 5.42 0 00.53 7.12l19.18 18.88 28.69-28.25-23.09-22.72-4.9 4.82a7.59 7.59 0 01-10.61 0 7.31 7.31 0 010-10.45L181 8.45a20.8 20.8 0 0129 0z"/></clipPath><clipPath id="clip-path-6"><path class="cls-1" d="M.81 1.58h507.24V512H.81z"/></clipPath><style>.cls-1{fill:#525d73}.cls-9{fill:none}</style></defs><path class="cls-1" d="M34.2 394.31a7 7 0 002.93 2 6.59 6.59 0 00-.57-1.37c-.26-.5-.74-1.21-1.25-2-3.82-5.76-10.94-16.46.54-35.82.94-1.57 1.91-3.1 2.85-4.58a69 69 0 005-8.75h-2.54A98.9 98.9 0 0024 345.33a231.47 231.47 0 002.91 29.58c1.2 7.37 2.93 14.81 7.29 19.4zm66.29-22.8c-7.52 1.2-17.25 4.13-20.84 11.26-2.61 5.17-2 11.58-1.28 19 .67 6.92 1.36 14.07-.49 21.39-2.29 9-9.79 18.87-20.85 19.25a33.91 33.91 0 01-8.54-1.09 32.07 32.07 0 00-4.32-.74 1.69 1.69 0 00.19.56c.82 1.55 4.69 4.68 11.56 6.48 4.9 1.28 17.59 3.38 29.68-4.69 1.35-.9 2.7-1.93 4.13-3a56.8 56.8 0 019.12-6c7.7-3.84 15.8-3.63 21.69.56 7.61 5.42 8.71 14.92 8.71 20.82 0 1.57-.08 2.87-.13 3.79l-.05.79c-.29 5-.6 10.26 1.42 12.8 1.34 1.68 4.32 2.49 7.25 2l.32-.07a107.15 107.15 0 003.43-26.94 106.36 106.36 0 00-.58-11.21v-.11c0-.16 0-.32-.05-.48v-.29-.33c0-.11 0-.28-.05-.42s0-.14 0-.2-.05-.4-.08-.6A105.74 105.74 0 00138.4 422c-.05-.19-.09-.37-.14-.56a.85.85 0 010-.17c0-.12-.06-.24-.1-.36l-.09-.37v-.15a104.52 104.52 0 00-29.6-49.74c-2.73.15-5.37.45-7.98.86zm-55.37-42.85h4.15c1.2.08 2.39.19 3.57.31h.56a112.69 112.69 0 0161.65 27.22c.24.18.48.36.71.56A119.45 119.45 0 01152 415.79a122.25 122.25 0 013.48 18.72v.13c0 .05 0 .31.05.46a123.47 123.47 0 01.63 12.49 123 123 0 01-5.11 35.18c0 .17-.11.33-.17.5a119.81 119.81 0 01-10.79 25 7.21 7.21 0 01-10.08 2.66 7.76 7.76 0 01-2.57-10.43 102.81 102.81 0 005.35-10.71 20.78 20.78 0 01-13.7-7.47c-5.71-7.17-5.18-16.18-4.76-23.41l.05-.78c.46-8-1.2-10.43-2.23-11.16-1.39-1-4.25-.74-7 .62a44.53 44.53 0 00-6.79 4.58c-1.55 1.18-3.15 2.4-4.88 3.55a51.06 51.06 0 01-41.25 6.65c-9.79-2.55-17.58-7.75-20.85-13.88a17.49 17.49 0 01-2-8.21 15.23 15.23 0 014.3-10.88c5.74-5.62 13-4 17.82-3a23.42 23.42 0 005 .77c3.23-.11 6.15-4.1 7.11-7.89 1.18-4.68.65-10.19.09-16-.83-8.6-1.77-18.34 2.87-27.55C71 367 79.37 361 91.53 357.86a97.52 97.52 0 00-32.68-12.43c-1.74 5.95-5 11-7.87 15.55-.91 1.45-1.78 2.81-2.59 4.17-6.48 10.91-3.92 14.76-1 19.21a37.4 37.4 0 012 3.29c4.89 9.22 2 17.25-3 21.12-5.32 4.09-14.7 4.66-22.74-3.77-7.21-7.59-9.71-17.71-11.33-27.53A245.27 245.27 0 019.4 349a7.35 7.35 0 01-8.06-5.21 7.78 7.78 0 01-.34-2.31 7.58 7.58 0 015.12-7.25 111.41 111.41 0 0135.07-5.63q1.93 0 3.84.06z"/><g clip-path="url(#clip-path)"><path class="cls-1" d="M.81 1.59h507.24V512H.81z"/><g clip-path="url(#clip-path-2)"><path class="cls-1" d="M-6.86 320.7h170.92v199.21H-6.86z"/></g></g><path d="M218.09 348.22a7.91 7.91 0 01-6 9.51 54.13 54.13 0 01-50.45-14.11 52.2 52.2 0 01-15.78-37.36 53 53 0 011.45-12.32 8 8 0 019.66-5.89 7.92 7.92 0 016 9.52 36.61 36.61 0 0010 34.86 38 38 0 0035.42 9.9 8 8 0 019.7 5.89z"/><g clip-path="url(#clip-path-3)"><path d="M.81 1.58h507.24V512H.81z"/><g clip-path="url(#clip-path-4)"><path class="cls-1" d="M138.01 279.94h88.14v87.13h-88.14z"/></g></g><path d="M130.72 296.35a68 68 0 0019.92 58.11 70.36 70.36 0 0059 19.62 7.6 7.6 0 018.57 6.44 7.52 7.52 0 01-6.54 8.44 85.64 85.64 0 01-71.83-23.88 82.73 82.73 0 01-25-59.28 85.28 85.28 0 01.78-11.45 7.61 7.61 0 018.58-6.44 7.53 7.53 0 016.52 8.44z" fill="#535d73"/><path class="cls-1" d="M191.59 18.9l-24.78 24.4L189.9 66l28.7-28.26-19.18-18.84a5.6 5.6 0 00-7.83 0zm-30.38 96.28l23.09 22.74 28.7-28.26-23.1-22.74zm60.71 52.07l24.78-24.4-23.09-22.74-28.7 28.25 19.18 18.89a5.61 5.61 0 007.83 0zM282.09 108a5.4 5.4 0 001.62-3.86 5.34 5.34 0 00-1.62-3.85l-19.18-18.88-28.69 28.25 23.09 22.74zm-52.88-59.77l-28.7 28.25 23.1 22.74L252.3 71zm25.87 158.6a.55.55 0 000 .78L268 220.35l.15.14 18.51 18.23.14.14 12.95 12.75a.54.54 0 00.78 0l33.6-33.08 33.6-33.08a.51.51 0 00.16-.38.49.49 0 00-.17-.39l-8-7.86-.24-.23-28.23-27.81-.25-.24-8-7.87a.56.56 0 00-.39-.16.54.54 0 00-.39.16l-33.6 33.08zm1.7 35.33q2.1 1.8 4.09 3.75t3.81 4l6.09-6-7.9-7.78zm-52.66-4.46l65.09 64.08a63.15 63.15 0 00-18.95-45.42 65.3 65.3 0 00-46.14-18.66zm176.12-81.86l-27.89-27.46-6.76 13.55 20.89 20.57zM198.42 299.61a5.47 5.47 0 000 7.79 5.66 5.66 0 007.91 0 5.45 5.45 0 000-7.79 5.66 5.66 0 00-7.91 0zm142.34-15.35a5.41 5.41 0 000 7.71l19.18 18.88 28.7-28.25-23.09-22.74zM427.35 375a5.55 5.55 0 003.92-1.59L456.05 349 433 326.23l-28.69 28.25 19.18 18.89a5.51 5.51 0 003.86 1.63zm-33.7-31l28.69-28.26-23.1-22.74-28.69 28.3zm68-67l-23.1-22.75-28.69 28.35L433 305.34zm-56.8-53.67a5.52 5.52 0 00-3.92 1.6l-24.78 24.39 23.09 22.74 28.7-28.25L408.76 225a5.51 5.51 0 00-3.91-1.58zM210 8.45l82.67 81.4a20 20 0 010 28.6l-24.78 24.4 15.47 15.23 28.29-27.87a15.73 15.73 0 0122 0l.69.68 7.88-15.8a9.5 9.5 0 017-5.11 9.6 9.6 0 018.29 2.62l38.74 38.14a9.3 9.3 0 012.66 8.16 9.4 9.4 0 01-5.19 6.88l-16.05 7.75.69.69a15.14 15.14 0 010 21.66l-28.3 27.86L365.55 239l24.78-24.4a20.77 20.77 0 0129 0l24.48 24.1L502 296a20 20 0 010 28.6l-1.39 1.37a7.58 7.58 0 01-10.6 0 7.31 7.31 0 010-10.45l1.39-1.36a5.41 5.41 0 000-7.71l-19.19-18.89-28.69 28.25 23.09 22.74 2.18-2.14a7.59 7.59 0 0110.61 0 7.31 7.31 0 010 10.45l-37.57 37a20.77 20.77 0 01-29 0l-24.48-24.1-58.18-57.29a20 20 0 010-28.6l24.78-24.4-15.47-15.22-28.3 27.86a15.75 15.75 0 01-22 0l-7.79-7.66-7.87 7.74a77.63 77.63 0 019.48 53.2 9.38 9.38 0 01-6.52 7.27 9.6 9.6 0 01-9.58-2.32l-35.49-34.93-10.11 9.95a20.07 20.07 0 01-4.31 22.47 20.81 20.81 0 01-29.12 0 20 20 0 010-28.67 20.85 20.85 0 0122.82-4.24l10.11-10L185.27 240a9.26 9.26 0 01-2.79-6.62 9.35 9.35 0 017.82-9.23 81 81 0 0154.09 9.29l7.87-7.74-7.79-7.67a15.18 15.18 0 010-21.67l28.3-27.86-15.46-15.23-24.78 24.4a20.8 20.8 0 01-29.05 0l-82.67-81.4a20.06 20.06 0 01-1.92-26.41 7.57 7.57 0 0110.5-1.48 7.31 7.31 0 011.5 10.33 5.42 5.42 0 00.53 7.12l19.18 18.88 28.69-28.25-23.09-22.72-4.9 4.82a7.59 7.59 0 01-10.61 0 7.31 7.31 0 010-10.45L181 8.45a20.8 20.8 0 0129 0z"/><g clip-path="url(#clip-path-5)"><path class="cls-1" d="M.81 1.58h507.24V512H.81z"/><g clip-path="url(#clip-path-6)"><path class="cls-1" d="M106.97-5.36H515.9v403H106.97z"/></g></g><path class="cls-9" d="M.81 0h510.38v513.59H.81z"/><path class="cls-9" d="M.81 0h510.38v512H.81z"/></svg>
