<svg xmlns="http://www.w3.org/2000/svg" viewBox="0 0 512 512"><defs><style>.cls-1{fill:#515d73}</style></defs><g id="Calque_2" data-name="Calque 2"><path class="cls-1" d="M431.12 407.08H80.88a29.35 29.35 0 01-29.32-29.32V134.24a29.35 29.35 0 0129.32-29.32h350.24a29.35 29.35 0 0129.32 29.32v243.52a29.35 29.35 0 01-29.32 29.32zM80.88 124.23a10 10 0 00-10 10v243.53a10 10 0 0010 10h350.24a10 10 0 0010-10V134.24a10 10 0 00-10-10z"/><path class="cls-1" d="M63.69 162.59h389.57v15.45H63.69zM249 148.94H88.25a4.83 4.83 0 010-9.66H249a4.83 4.83 0 010 9.66zM139.5 222.82h-29.64a4.83 4.83 0 110-9.65h29.64a4.83 4.83 0 110 9.65zM139.5 347.67h-29.64a4.83 4.83 0 110-9.65h29.64a4.83 4.83 0 110 9.65zM177.08 306.05H133a4.83 4.83 0 010-9.65h44.12a4.83 4.83 0 010 9.65zM230.35 306.05H192a4.83 4.83 0 110-9.65h38.31a4.83 4.83 0 110 9.65zM330.51 306.05h-83.79a4.83 4.83 0 010-9.65h83.79a4.83 4.83 0 110 9.65zM402.14 306.05h-55.26a4.83 4.83 0 110-9.65h55.26a4.83 4.83 0 110 9.65zM402.14 326.86h-55.26a4.83 4.83 0 110-9.65h55.26a4.83 4.83 0 110 9.65zM331.46 326.86H284.8a4.83 4.83 0 110-9.65h46.66a4.83 4.83 0 110 9.65zM269.38 326.86h-65.74a4.83 4.83 0 010-9.65h65.74a4.83 4.83 0 110 9.65zM188.22 326.86H133a4.83 4.83 0 010-9.65h55.26a4.83 4.83 0 110 9.65zM207.79 201.54H133a4.83 4.83 0 010-9.66h74.83a4.83 4.83 0 110 9.66zM188.22 243.15H133a4.83 4.83 0 010-9.65h55.26a4.83 4.83 0 110 9.65zM230.35 243.15h-25.76a4.83 4.83 0 010-9.65h25.76a4.83 4.83 0 110 9.65zM330.51 243.15h-83.79a4.83 4.83 0 010-9.65h83.79a4.83 4.83 0 110 9.65zM402.14 243.15h-55.26a4.83 4.83 0 110-9.65h55.26a4.83 4.83 0 110 9.65zM188.22 368H133a4.83 4.83 0 010-9.65h55.26a4.83 4.83 0 110 9.65zM230.35 368h-25.76a4.83 4.83 0 010-9.65h25.76a4.83 4.83 0 110 9.65zM330.51 368h-83.79a4.83 4.83 0 010-9.65h83.79a4.83 4.83 0 110 9.65zM402.14 368h-55.26a4.83 4.83 0 110-9.65h55.26a4.83 4.83 0 110 9.65zM402.14 264h-55.26a4.83 4.83 0 110-9.65h55.26a4.83 4.83 0 110 9.65zM331.46 264H284.8a4.83 4.83 0 110-9.65h46.66a4.83 4.83 0 110 9.65zM269.38 264h-65.74a4.83 4.83 0 010-9.65h65.74a4.83 4.83 0 110 9.65zM188.22 264H133a4.83 4.83 0 010-9.65h55.26a4.83 4.83 0 110 9.65zM139.5 283.82h-29.64a4.83 4.83 0 110-9.65h29.64a4.83 4.83 0 110 9.65zM413 151.72a1.93 1.93 0 01-1.33-3.33l12-11.36a1.93 1.93 0 112.65 2.8l-12 11.36a1.89 1.89 0 01-1.32.53z"/><path class="cls-1" d="M424.76 151.94a2 2 0 01-1.38-.58l-11.56-11.79a1.93 1.93 0 012.76-2.7l11.56 11.78a1.94 1.94 0 010 2.73 1.91 1.91 0 01-1.38.56z"/></g></svg>
